<?xml version="1.0" encoding="iso-8859-1"?>
<!-- Generator: Adobe Illustrator 19.0.0, SVG Export Plug-In . SVG Version: 6.00 Build 0)  -->
<svg version="1.1" id="Capa_1" xmlns="http://www.w3.org/2000/svg" xmlns:xlink="http://www.w3.org/1999/xlink" x="0px" y="0px"
	 viewBox="0 0 512 512" style="enable-background:new 0 0 512 512;" xml:space="preserve">
<g>
	<g>
		<path d="M256,0C115.041,0,0,115.049,0,256c0,140.958,115.049,256,256,256c140.958,0,256-115.049,256-256
			C512,115.041,396.951,0,256,0z M256,482C131.383,482,30,380.617,30,256S131.383,30,256,30s226,101.383,226,226
			S380.617,482,256,482z"/>
	</g>
</g>
<g>
	<g>
		<path d="M256,61C148.477,61,61,148.477,61,256s87.477,195,195,195s195-87.477,195-195S363.523,61,256,61z M256,421
			c-90.981,0-165-74.019-165-165S165.019,91,256,91s165,74.019,165,165S346.981,421,256,421z"/>
	</g>
</g>
<g>
	<g>
		<path d="M320.829,244.382C327.248,234.832,331,223.347,331,211c0-33.084-26.916-60-60-60v-15c0-8.284-6.716-15-15-15
			s-15,6.716-15,15v15c-14.095,0-30.95,0-45,0c-8.284,0-15,6.716-15,15s6.716,15,15,15h15c0,10.128,0,139.871,0,150h-15
			c-8.284,0-15,6.716-15,15s6.716,15,15,15c14.05,0,30.905,0,45,0v15c0,8.284,6.716,15,15,15s15-6.716,15-15v-15h30
			c33.084,0,60-26.916,60-60C361,274.864,344.196,252.591,320.829,244.382z M241,181h30c16.542,0,30,13.458,30,30s-13.458,30-30,30
			h-30V181z M301,331h-60v-60c7.259,0,52.693,0,60,0c16.542,0,30,13.458,30,30S317.542,331,301,331z"/>
	</g>
</g>
<g>
</g>
<g>
</g>
<g>
</g>
<g>
</g>
<g>
</g>
<g>
</g>
<g>
</g>
<g>
</g>
<g>
</g>
<g>
</g>
<g>
</g>
<g>
</g>
<g>
</g>
<g>
</g>
<g>
</g>
</svg>
