<svg width="23" height="48" viewBox="0 0 23 48" fill="none" xmlns="http://www.w3.org/2000/svg">
<path d="M3.51365 0.69276C2.79168 -0.143203 1.52872 -0.235615 0.69276 0.486354C-0.143203 1.20832 -0.235615 2.47128 0.486354 3.30724L3.51365 0.69276ZM21 24L22.5136 25.3072C23.1621 24.5564 23.1621 23.4436 22.5136 22.6928L21 24ZM0.486354 44.6928C-0.235615 45.5287 -0.143203 46.7917 0.69276 47.5136C1.52872 48.2356 2.79168 48.1432 3.51365 47.3072L0.486354 44.6928ZM0.486354 3.30724L19.4864 25.3072L22.5136 22.6928L3.51365 0.69276L0.486354 3.30724ZM19.4864 22.6928L0.486354 44.6928L3.51365 47.3072L22.5136 25.3072L19.4864 22.6928Z" fill="#9F9997"/>
</svg>
