<svg width="75" height="75" viewBox="0 0 75 75" fill="none" xmlns="http://www.w3.org/2000/svg">
<g clip-path="url(#clip0)">
<path d="M74.6468 17.1885L56.7647 0.439405C56.3355 0.037451 55.668 0.037451 55.2388 0.439405L37.3567 17.1885C37.0223 17.5015 36.9134 17.9872 37.0817 18.4132C37.2501 18.8391 37.6617 19.1191 38.1197 19.1191H45.1558V22.1272C45.1558 22.7436 45.6555 23.2433 46.2719 23.2433C46.8883 23.2433 47.388 22.7436 47.388 22.1272V18.0032C47.388 17.3868 46.8883 16.8871 46.2719 16.8871H40.9438L56.0018 2.78331L71.0597 16.887H65.7318C65.1154 16.887 64.6157 17.3867 64.6157 18.0031V56.2039C64.6157 56.8203 65.1154 57.32 65.7318 57.32C66.3482 57.32 66.8478 56.8203 66.8478 56.2039V19.1191H73.8839C74.342 19.1191 74.7536 18.8392 74.9219 18.4132C75.0902 17.9871 74.9813 17.5015 74.6468 17.1885Z" fill="#3A1E19" fill-opacity="0.68"/>
<path d="M65.7318 59.5522C65.1153 59.5522 64.6157 60.0519 64.6157 60.6683V72.6295H47.3879V71.6802C47.3879 71.0637 46.8883 70.5641 46.2719 70.5641C45.6554 70.5641 45.1558 71.0637 45.1558 71.6802V73.7456C45.1558 74.362 45.6554 74.8617 46.2719 74.8617H65.7319C66.3483 74.8617 66.848 74.362 66.848 73.7456V60.6685C66.8478 60.0521 66.3482 59.5522 65.7318 59.5522Z" fill="#3A1E19" fill-opacity="0.68"/>
<path d="M28.0413 18.7793C27.4249 18.7793 26.9252 19.279 26.9252 19.8954C26.9252 20.5118 27.4249 21.0114 28.0413 21.0114C42.2724 21.0114 53.8504 32.5894 53.8504 46.8206C53.8504 61.0517 42.2724 72.6297 28.0413 72.6297C13.8101 72.6297 2.23213 61.0517 2.23213 46.8206C2.23213 34.5422 10.9584 23.8963 22.9812 21.507C23.5858 21.3869 23.9785 20.7995 23.8582 20.1948C23.7381 19.5902 23.151 19.1972 22.546 19.3178C9.48195 21.9139 0 33.4805 0 46.8206C0 62.2826 12.5792 74.8618 28.0413 74.8618C43.5033 74.8618 56.0825 62.2826 56.0825 46.8206C56.0825 31.3585 43.5033 18.7793 28.0413 18.7793Z" fill="#3A1E19" fill-opacity="0.68"/>
<path d="M44.1355 30.7264C35.261 21.8519 20.8215 21.852 11.9471 30.7264C3.07264 39.6007 3.07264 54.0403 11.9471 62.9148C16.3843 67.3519 22.2128 69.5706 28.0414 69.5706C33.8699 69.5706 39.6983 67.3521 44.1355 62.9148C53.01 54.0403 53.01 39.6007 44.1355 30.7264ZM42.5571 61.3362C34.5531 69.3403 21.5294 69.3405 13.5253 61.3362C5.52128 53.3322 5.52128 40.3085 13.5253 32.3044C17.5273 28.3025 22.7843 26.3014 28.0412 26.3014C33.2981 26.3014 38.555 28.3023 42.5571 32.3044C50.5612 40.3087 50.5612 53.3323 42.5571 61.3362Z" fill="#3A1E19" fill-opacity="0.68"/>
<path d="M33.0723 45.6231C33.7096 44.6542 34.0821 43.489 34.0821 42.2363C34.0821 38.8798 31.4098 36.1491 28.125 36.1491V34.6273C28.125 33.7868 27.4583 33.1055 26.6358 33.1055C25.8133 33.1055 25.1465 33.7868 25.1465 34.6273V36.1491C23.7471 36.1491 22.0737 36.1491 20.6787 36.1491C19.8563 36.1491 19.1895 36.8305 19.1895 37.6709C19.1895 38.5114 19.8563 39.1927 20.6787 39.1927H22.168C22.168 40.2202 22.168 53.3832 22.168 54.4109H20.6787C19.8563 54.4109 19.1895 55.0922 19.1895 55.9327C19.1895 56.7731 19.8563 57.4545 20.6787 57.4545C22.0737 57.4545 23.7471 57.4545 25.1465 57.4545V58.9763C25.1465 59.8167 25.8133 60.4981 26.6358 60.4981C27.4583 60.4981 28.125 59.8167 28.125 58.9763V57.4545H31.1036C34.3883 57.4545 37.0606 54.7237 37.0606 51.3672C37.0606 48.7156 35.3922 46.4559 33.0723 45.6231ZM25.1465 39.1927H28.125C29.7674 39.1927 31.1036 40.5581 31.1036 42.2363C31.1036 43.9146 29.7674 45.28 28.125 45.28H25.1465V39.1927ZM31.1036 54.4109H25.1465V48.3236C25.8672 48.3236 30.3781 48.3236 31.1036 48.3236C32.7459 48.3236 34.0821 49.689 34.0821 51.3672C34.0821 53.0455 32.7459 54.4109 31.1036 54.4109Z" fill="#3A1E19" fill-opacity="0.68"/>
</g>
<defs>
<clipPath id="clip0">
<rect width="75" height="75" fill="white"/>
</clipPath>
</defs>
</svg>
