<svg width="75" height="75" viewBox="0 0 75 75" fill="none" xmlns="http://www.w3.org/2000/svg">
<g clip-path="url(#clip0)">
<path d="M63.7165 9.14946H63.714C51.5075 -3.05282 31.7202 -3.04938 19.5179 9.15712C14.6846 13.992 11.5701 20.2784 10.6516 27.0528L2.2412 45.7361C1.95806 46.3658 2.23917 47.1057 2.86889 47.3889C3.02921 47.4609 3.20297 47.4984 3.37875 47.4987H10.3666V61.2493C10.3666 61.9397 10.9263 62.4994 11.6166 62.4994H25.3673V73.7499C25.3673 74.4403 25.927 75 26.6173 75H56.6187C57.309 75 57.8688 74.4403 57.8688 73.7499V57.9267C59.9963 56.6415 61.96 55.1027 63.7165 53.344C75.9199 41.1398 75.9199 21.3538 63.7165 9.14946ZM61.9464 51.5776C60.1737 53.3516 58.1717 54.8808 55.9937 56.1241C55.6057 56.348 55.3674 56.7624 55.3686 57.2104V72.4999H27.8674V61.2493C27.8674 60.559 27.3077 59.9993 26.6173 59.9993H12.8667V46.2487C12.8667 45.5583 12.307 44.9986 11.6166 44.9986H5.31259L13.0067 27.9103C13.0579 27.7981 13.0917 27.6789 13.1067 27.5566C15.1426 11.8088 29.5592 0.692981 45.3071 2.72886C61.055 4.76473 72.1707 19.1813 70.1348 34.9292C69.3201 41.2311 66.4407 47.0856 61.9464 51.5776Z" fill="#3A1E19" fill-opacity="0.68"/>
<path d="M61.1739 18.9975C60.5564 18.2472 59.799 17.6239 58.9438 17.1625C58.6952 12.5251 54.8611 8.89317 50.2171 8.89582C49.5095 8.89879 48.8049 8.98692 48.1183 9.15834C44.9111 5.56255 39.3963 5.24769 35.8005 8.45487C35.0769 9.10036 34.4658 9.86196 33.9927 10.7084C33.0062 10.5848 32.0044 10.6839 31.0613 10.9984C29.6012 11.5044 28.3479 12.4758 27.4936 13.7635C22.6692 14.0476 18.9885 18.1887 19.2726 23.013C19.5417 27.584 23.2892 31.1745 27.8674 31.2481H37.8678C37.9061 31.2425 37.9441 31.235 37.9816 31.2256C41.3822 34.5892 46.8565 34.5892 50.2572 31.2256C50.2939 31.235 50.3309 31.2425 50.3684 31.2481H55.1311C58.7508 31.3103 61.9171 28.823 62.714 25.2916C63.174 23.0688 62.6083 20.757 61.1739 18.9975ZM60.2626 24.799V24.7966C59.7035 27.1626 57.5614 28.812 55.1311 28.748H52.006C52.5719 27.5787 52.8668 26.2968 52.8685 24.9978C52.8685 24.3075 52.3088 23.7478 51.6185 23.7478C50.9281 23.7478 50.3684 24.3075 50.3684 24.9978C50.3754 26.0971 50.0828 27.1774 49.5221 28.123C47.803 31.1076 43.9898 32.1334 41.0052 30.4143C40.0486 29.8633 39.2554 29.0683 38.7066 28.1105C38.1502 27.1681 37.8602 26.0922 37.8678 24.9978C37.8678 24.3075 37.3081 23.7478 36.6178 23.7478C35.9274 23.7478 35.3677 24.3075 35.3677 24.9978C35.3708 26.2971 35.6669 27.579 36.234 28.748H27.8674C24.421 28.7522 21.6236 25.9618 21.6196 22.5154C21.6161 19.6313 23.5894 17.1207 26.3923 16.4424C26.1893 17.4765 26.256 18.5455 26.5861 19.5463C26.815 20.1976 27.5286 20.5401 28.1799 20.3112C28.8194 20.0863 29.1634 19.3927 28.9549 18.7475C28.4038 16.474 29.662 14.152 31.8676 13.3723C32.2537 13.2493 32.6562 13.1852 33.0614 13.1823C32.9342 13.779 32.8692 14.3873 32.8676 14.9974C32.8676 15.6877 33.4273 16.2474 34.1177 16.2474C34.808 16.2474 35.3677 15.6877 35.3677 14.9974C35.3705 14.607 35.4099 14.2178 35.4852 13.8348C36.3048 14.3144 36.93 15.0664 37.2516 15.9599C37.4725 16.614 38.1819 16.9653 38.836 16.7443C39.4901 16.5234 39.8414 15.814 39.6204 15.1599C39.0712 13.5751 37.9377 12.2597 36.4515 11.4822C38.3569 8.64363 42.2027 7.88718 45.0413 9.79274C45.236 9.92353 45.4232 10.0653 45.6019 10.2171C45.0321 10.5689 44.5044 10.985 44.0294 11.4572C43.5328 11.9369 43.519 12.7282 43.9987 13.2248C44.4784 13.7214 45.2697 13.7351 45.7663 13.2554C45.7768 13.2454 45.7869 13.2351 45.7969 13.2248C46.2104 12.8237 46.6773 12.4816 47.1845 12.2085C47.6281 13.0715 47.8623 14.027 47.8683 14.9974C47.8683 15.6877 48.428 16.2474 49.1183 16.2474C49.8087 16.2474 50.3684 15.6877 50.3684 14.9974C50.3693 13.7778 50.1137 12.5716 49.6184 11.4572C49.8196 11.4384 50.0171 11.3984 50.2221 11.3984C53.1584 11.3952 55.6983 13.4424 56.3187 16.3124C56.0037 16.2704 55.6863 16.2487 55.3686 16.2474C54.6783 16.2474 54.1186 16.8071 54.1186 17.4975C54.1186 18.1878 54.6783 18.7475 55.3686 18.7475C55.698 18.7514 56.0263 18.7878 56.3487 18.8563C56.1121 20.0745 55.5155 21.1936 54.6361 22.0689C54.1395 22.5486 54.1258 23.3399 54.6055 23.8365C55.0852 24.3331 55.8765 24.3468 56.3731 23.8671C56.3835 23.8571 56.3937 23.8468 56.4037 23.8365C57.4697 22.7724 58.2408 21.4495 58.6413 19.9976C58.8566 20.1759 59.0569 20.3715 59.2401 20.5826C60.2071 21.7581 60.5837 23.3112 60.2626 24.799Z" fill="#3A1E19" fill-opacity="0.68"/>
<path d="M46.9257 25.1226C46.3277 24.7778 45.5632 24.9829 45.2183 25.5811C45.2183 25.5812 45.2182 25.5812 45.2182 25.5814C44.9986 25.9856 44.5781 26.2403 44.1181 26.2477C43.6737 26.2455 43.264 26.0075 43.0418 25.6226C42.9251 25.4353 42.8648 25.2183 42.8681 24.9976C42.8681 24.3073 42.3083 23.7476 41.618 23.7476C40.9277 23.7476 40.3679 24.3073 40.3679 24.9976C40.3642 25.6578 40.5414 26.3063 40.8805 26.8727C41.9132 28.6601 44.1994 29.2719 45.9866 28.2392C46.5704 27.9018 47.0521 27.4129 47.3808 26.8239C47.7222 26.2281 47.519 25.4686 46.9257 25.1226Z" fill="#3A1E19" fill-opacity="0.68"/>
<path d="M46.6182 17.4973C45.9279 17.4973 45.3682 18.057 45.3682 18.7474C45.3682 19.4377 45.9279 19.9974 46.6182 19.9974C47.3086 19.9974 47.8683 20.5571 47.8683 21.2475C47.8683 21.9378 48.428 22.4975 49.1183 22.4975C49.8087 22.4975 50.3684 21.9378 50.3684 21.2475C50.3684 19.1765 48.6894 17.4973 46.6182 17.4973Z" fill="#3A1E19" fill-opacity="0.68"/>
<path d="M27.8674 23.7477C27.177 23.7477 26.6173 23.188 26.6173 22.4976C26.6173 21.8073 26.0576 21.2476 25.3673 21.2476C24.6769 21.2476 24.1172 21.8073 24.1172 22.4976C24.1172 24.5688 25.7962 26.2478 27.8674 26.2478C28.5577 26.2478 29.1174 25.6881 29.1174 24.9977C29.1174 24.3074 28.5579 23.7477 27.8674 23.7477Z" fill="#3A1E19" fill-opacity="0.68"/>
<path d="M34.1177 17.4973C33.4273 17.4973 32.8676 18.057 32.8676 18.7474C32.8676 19.4377 33.4273 19.9974 34.1177 19.9974C34.808 19.9974 35.3677 20.5571 35.3677 21.2475C35.3677 21.9378 35.9274 22.4975 36.6178 22.4975C37.3081 22.4975 37.8678 21.9378 37.8678 21.2475C37.8678 19.1765 36.1888 17.4973 34.1177 17.4973Z" fill="#3A1E19" fill-opacity="0.68"/>
</g>
<defs>
<clipPath id="clip0">
<rect width="75" height="75" fill="white"/>
</clipPath>
</defs>
</svg>
