<svg width="75" height="75" viewBox="0 0 75 75" fill="none" xmlns="http://www.w3.org/2000/svg">
<g clip-path="url(#clip0)">
<path d="M16.0889 72.6868L13.8836 69.5805C13.4154 68.9207 12.5009 68.7656 11.8412 69.2339C11.1816 69.7022 11.0263 70.6165 11.4947 71.2763L13.7001 74.3828C13.9857 74.7852 14.4372 74.9998 14.8958 74.9998C15.1891 74.9998 15.4851 74.9119 15.7425 74.7292C16.4021 74.2609 16.5574 73.3466 16.0889 72.6868Z" fill="#3A1E19" fill-opacity="0.68"/>
<path d="M32.9891 73.2339L30.5891 61.7953C29.422 56.233 26.1818 51.4234 21.4656 48.2521L16.3415 44.8065C14.2867 43.4252 11.5249 43.7223 9.80757 45.4735V27.8228C9.80757 25.506 8.22803 23.5375 5.96632 23.0355C4.50661 22.7112 3.00105 23.0625 1.83489 23.9981C0.668882 24.9337 0.000183105 26.3278 0.000183105 27.8228V50.5354C0.000183105 53.5109 0.910726 56.3663 2.63323 58.7928L5.24547 62.4726C5.53112 62.875 5.98258 63.0896 6.44122 63.0896C6.73448 63.0896 7.03053 63.0017 7.2879 62.8191C7.94751 62.3508 8.10279 61.4364 7.63433 60.7766L5.02209 57.0968C3.65334 55.1687 2.92986 52.8998 2.92986 50.5352V27.8228C2.92986 27.221 3.1991 26.6598 3.66843 26.2831C4.13762 25.9065 4.74362 25.7651 5.33161 25.8956C6.242 26.0976 6.87789 26.8901 6.87789 27.8228V45.8426C6.87789 48.3935 7.81509 50.8238 9.51767 52.7146C9.59062 52.8021 9.66562 52.8886 9.74487 52.9726C10.7177 54.0034 11.8614 55.218 12.9387 56.3629L14.4467 57.968C14.4515 57.9731 14.4568 57.9775 14.4618 57.9825C15.7519 59.3546 16.7033 60.3678 16.7232 60.3889C17.2768 60.9785 18.204 61.0078 18.7938 60.4539C19.3835 59.9001 19.4127 58.9731 18.8587 58.3834C18.832 58.355 17.1173 56.5291 15.1591 54.4477L11.8003 50.873C11.7918 50.8639 11.7841 50.8544 11.7756 50.8453C10.9881 49.9034 10.9979 48.5378 11.8233 47.6058C12.5536 46.7817 13.7934 46.6235 14.707 47.2377L19.8309 50.6833C23.9101 53.4262 26.7125 57.5861 27.7218 62.3969L30.1219 73.8357C30.2668 74.5261 30.8757 74.9999 31.5541 74.9999C31.6537 74.9999 31.7549 74.9897 31.8563 74.9684C32.6481 74.8023 33.1552 74.0257 32.9891 73.2339Z" fill="#3A1E19" fill-opacity="0.68"/>
<path d="M10.8529 65.3109L10.8435 65.2977C10.3733 64.6392 9.45862 64.4862 8.80018 64.9561C8.14173 65.4261 7.98881 66.3408 8.45858 66.9993L8.46795 67.0125C8.75389 67.4131 9.20433 67.6267 9.66165 67.6267C9.95608 67.6267 10.2533 67.5382 10.5113 67.3541C11.1696 66.8842 11.3226 65.9694 10.8529 65.3109Z" fill="#3A1E19" fill-opacity="0.68"/>
<path d="M73.165 23.9983C71.999 23.0627 70.4927 22.7121 69.0337 23.0358C66.772 23.5376 65.1923 25.5062 65.1923 27.823V45.4737C63.4751 43.7225 60.713 43.4255 58.6584 44.8068L53.5343 48.2522C48.8179 51.4233 45.5778 56.2331 44.4108 61.7954L42.0108 73.2342C41.8447 74.0259 42.3518 74.8024 43.1436 74.9686C43.2449 74.9898 43.3463 75 43.4458 75C44.1243 75 44.7331 74.526 44.8779 73.8356L47.2779 62.3969C48.2874 57.5862 51.0896 53.4262 55.1689 50.6834L60.293 47.238C61.2063 46.6236 62.4462 46.7818 63.1767 47.606C64.0011 48.5367 64.0121 49.9002 63.2275 50.8421C63.2182 50.8523 63.2092 50.8629 63.1998 50.8731C63.1998 50.8731 56.1679 58.3554 56.1414 58.3835C55.5875 58.9733 55.6167 59.9002 56.2063 60.4541C56.796 61.0079 57.723 60.9788 58.2768 60.389C58.2967 60.3679 64.2824 54.0036 65.2552 52.9728C65.3344 52.8889 65.4094 52.8023 65.4824 52.7149C67.1848 50.8241 68.1221 48.3937 68.1221 45.8429V27.8229C68.1221 26.8902 68.758 26.0977 69.6686 25.8957C70.2564 25.7654 70.8623 25.9067 71.3317 26.2832C71.8011 26.6598 72.0703 27.221 72.0703 27.8229V50.5355C72.0703 52.9 71.3468 55.1689 69.9781 57.0971L58.9111 72.6869C58.4428 73.3465 58.5979 74.261 59.2575 74.7293C59.515 74.912 59.8109 74.9999 60.1042 74.9999C60.5627 74.9999 61.0143 74.7852 61.3 74.3829L72.3669 58.7931C74.0895 56.3666 75 53.5112 75 50.5356V27.8229C74.9996 26.3279 74.331 24.9339 73.165 23.9983Z" fill="#3A1E19" fill-opacity="0.68"/>
<path d="M56.0532 28.0751L53.4471 27.4526V26.9853C55.1409 25.7988 56.2515 23.834 56.2515 21.6136V18.2255C56.2515 14.6105 53.3106 11.6695 49.6955 11.6695C48.0732 11.6695 46.5878 12.2631 45.4419 13.2428C44.166 10.1183 41.096 7.91016 37.5183 7.91016C33.9362 7.91016 30.863 10.124 29.59 13.2545C28.4423 12.2678 26.9515 11.6692 25.3226 11.6692C21.7076 11.6692 18.7666 14.6102 18.7666 18.2253V18.4504V21.6133C18.7666 23.8337 19.8773 25.7985 21.5711 26.985V27.4523L18.965 28.0748C15.8533 28.8182 13.6801 31.5717 13.6801 34.7709V37.5066C13.6801 38.3156 14.3361 38.9715 15.145 38.9715H21.8762C21.8658 39.1491 21.8586 39.3277 21.8586 39.5077V44.775C21.8586 45.584 22.5146 46.2398 23.3234 46.2398H32.1286C32.9375 46.2398 33.5934 45.584 33.5934 44.775C33.5934 43.966 32.9375 43.3102 32.1286 43.3102H30.6151V40.2831C30.6151 39.474 29.9592 38.8182 29.1503 38.8182C28.3414 38.8182 27.6854 39.474 27.6854 40.2831V43.3105H24.7884V39.508C24.7884 36.6828 26.7074 34.2498 29.4545 33.5915L33.4743 32.6283L36.1645 38.7487C36.3983 39.2805 36.9245 39.624 37.5053 39.624H37.5054C38.0864 39.624 38.6125 39.2807 38.8463 38.7488L41.5337 32.6375L45.5408 33.5948C48.2906 34.2518 50.2111 36.685 50.2111 39.5123V43.3105H47.3141V40.2831C47.3141 39.474 46.6582 38.8182 45.8493 38.8182C45.0404 38.8182 44.3844 39.474 44.3844 40.2831V43.3105H42.7243C41.9154 43.3105 41.2595 43.9663 41.2595 44.7753C41.2595 45.5843 41.9154 46.2401 42.7243 46.2401H51.6761C52.485 46.2401 53.1409 45.5843 53.1409 44.7753V39.5123C53.1409 39.3308 53.1336 39.1509 53.1231 38.9718H59.8733C60.6822 38.9718 61.3382 38.3159 61.3382 37.5069V34.7712C61.3382 31.572 59.1649 28.8184 56.0532 28.0751ZM49.6955 14.5989C51.6147 14.5989 53.1903 16.0976 53.3139 17.986H51.2774C49.5653 17.986 47.8804 17.5738 46.3659 16.789C46.923 15.5017 48.2059 14.5989 49.6955 14.5989ZM46.0691 21.3994C46.0709 21.3281 46.0746 21.257 46.0746 21.1853V19.8807C47.7183 20.5609 49.4859 20.9157 51.2774 20.9157H53.3219V21.6134C53.3219 23.6129 51.6952 25.2398 49.6955 25.2398C47.6959 25.2398 46.0691 23.6129 46.0691 21.6133V21.3994ZM31.8919 16.4663C31.8919 13.3639 34.4158 10.8398 37.5183 10.8398C40.3166 10.8398 42.6441 12.8932 43.0738 15.5721L40.6078 14.1233C39.9909 13.7609 39.2026 13.8969 38.7431 14.4455C37.5379 15.8837 35.7706 16.7086 33.8941 16.7086H31.8919V16.4663ZM25.3228 14.5989C26.8124 14.5989 28.0951 15.5018 28.6524 16.7888C27.1377 17.5737 25.453 17.9859 23.7409 17.9859H21.7044C21.828 16.0976 23.4037 14.5989 25.3228 14.5989ZM21.6964 20.9156H23.7409C25.5343 20.9156 27.3038 20.5601 28.9491 19.8783V21.6131C28.9491 23.6126 27.3224 25.2395 25.3228 25.2395C23.3231 25.2395 21.6964 23.6129 21.6964 21.6133V20.9156ZM28.7719 30.7424C25.89 31.433 23.625 33.4423 22.5471 36.0419H16.6098V34.771C16.6098 32.9333 17.8581 31.3514 19.6457 30.9244L23.3763 30.0332C24.0356 29.8757 24.5009 29.2864 24.5009 28.6085V28.116C24.7704 28.1498 25.0443 28.1693 25.3228 28.1693C25.5992 28.1693 25.8712 28.1501 26.1387 28.1167V28.5346C26.1377 28.5565 26.1372 28.5783 26.1371 28.6001C26.1368 29.0807 26.3731 29.5515 26.807 29.8322C26.9704 29.9381 27.1471 30.0069 27.3274 30.0414L29.5125 30.5649L28.7719 30.7424ZM32.8579 28.4684C32.4816 28.3025 32.0893 28.1697 31.685 28.0729L29.0682 27.4458V26.9894C29.5405 26.6593 29.9675 26.2693 30.3378 25.8295C30.992 26.8373 31.8516 27.6991 32.8579 28.3555V28.4684ZM39.22 30.6207L37.5058 34.5194L35.7877 30.6108V29.5654C36.3469 29.6807 36.9256 29.7415 37.5183 29.7415C38.1009 29.7415 38.6698 29.6825 39.22 29.571V30.6207ZM37.5183 26.8117C34.4158 26.8118 31.8919 24.2878 31.8919 21.1853V19.6381H33.8941C36.2171 19.6381 38.4258 18.7743 40.1185 17.2336L43.1393 19.0084V21.3996C43.0262 24.4029 40.5491 26.8117 37.5183 26.8117ZM42.1497 28.4731V28.3739C43.1642 27.718 44.0314 26.854 44.6907 25.8418C45.0586 26.2766 45.4819 26.6624 45.9496 26.9894V27.4458L43.3327 28.0729C42.9249 28.1708 42.5292 28.3051 42.1497 28.4731ZM58.4084 36.0419H52.4509C51.3719 33.4423 49.1053 31.4341 46.2216 30.7452L45.4861 30.5696L47.683 30.0431C47.8658 30.0091 48.0454 29.9394 48.211 29.8322C48.6442 29.552 48.8797 29.0812 48.8797 28.6006C48.8797 28.5891 48.8796 28.5776 48.8793 28.5661V28.1167C49.1469 28.1501 49.4188 28.1693 49.6952 28.1693C49.9737 28.1693 50.2476 28.1498 50.5171 28.116V28.6085C50.5171 29.2864 50.9824 29.8757 51.6417 30.0332L55.3723 30.9244C57.1599 31.3515 58.4084 32.9333 58.4084 34.771V36.0419Z" fill="#3A1E19" fill-opacity="0.68"/>
<path d="M38.5354 43.7385C38.2616 43.4661 37.8851 43.3108 37.4999 43.3108C37.113 43.3108 36.7367 43.4661 36.4642 43.7385C36.1903 44.0124 36.035 44.3889 36.035 44.7756C36.035 45.1609 36.1903 45.5373 36.4642 45.8113C36.7367 46.0837 37.1132 46.2405 37.4999 46.2405C37.8851 46.2405 38.2616 46.0837 38.5354 45.8113C38.8078 45.5373 38.9647 45.1609 38.9647 44.7756C38.9647 44.3889 38.808 44.0124 38.5354 43.7385Z" fill="#3A1E19" fill-opacity="0.68"/>
<path d="M37.4988 0C36.69 0 36.034 0.655808 36.034 1.46484V3.65668C36.034 4.46571 36.69 5.12151 37.4988 5.12151C38.3077 5.12151 38.9637 4.46571 38.9637 3.65668V1.46484C38.9637 0.655808 38.3079 0 37.4988 0Z" fill="#3A1E19" fill-opacity="0.68"/>
<path d="M32.1029 4.77799L30.5663 3.24284C29.994 2.67097 29.0666 2.67141 28.4947 3.24372C27.9229 3.81603 27.9235 4.74357 28.4958 5.31529L30.0325 6.85044C30.3185 7.13623 30.6932 7.27905 31.0677 7.27905C31.4429 7.27905 31.8179 7.13579 32.104 6.84956C32.6755 6.27725 32.6752 5.34972 32.1029 4.77799Z" fill="#3A1E19" fill-opacity="0.68"/>
<path d="M46.4679 3.28061C45.8956 2.70888 44.9679 2.70917 44.3963 3.28163L42.8716 4.80785C42.2999 5.38016 42.3003 6.3077 42.8726 6.87942C43.1587 7.16521 43.5333 7.30803 43.908 7.30803C44.2831 7.30803 44.6583 7.16477 44.9442 6.8784L46.4689 5.35218C47.0407 4.77987 47.0402 3.85233 46.4679 3.28061Z" fill="#3A1E19" fill-opacity="0.68"/>
</g>
<defs>
<clipPath id="clip0">
<rect width="75" height="75" fill="white"/>
</clipPath>
</defs>
</svg>
