<svg width="75" height="75" viewBox="0 0 75 75" fill="none" xmlns="http://www.w3.org/2000/svg">
<g clip-path="url(#clip0)">
<path d="M13.9223 27.99L15.576 32.4737C15.6381 32.6425 15.7989 32.7545 15.9785 32.7545C16.1582 32.7545 16.3189 32.6425 16.3811 32.4737L18.0348 27.99C19.3734 24.3601 22.2347 21.4987 25.8643 20.1604L30.3481 18.5067C30.5166 18.4445 30.6286 18.2838 30.6286 18.1041C30.6286 17.9245 30.5166 17.7638 30.3481 17.7016L25.8641 16.0479C22.2345 14.7093 19.3731 11.8482 18.0348 8.21859L16.3811 3.73485C16.3189 3.56629 16.1582 3.45435 15.9785 3.45435C15.7989 3.45435 15.6381 3.56629 15.576 3.73485L13.9223 8.21859C12.5837 11.8482 9.72256 14.7093 6.09271 16.0479L1.60872 17.7016C1.44016 17.7638 1.32822 17.9245 1.32822 18.1041C1.32822 18.2838 1.44016 18.4445 1.60872 18.5067L6.09246 20.1604C9.72231 21.4987 12.5837 24.3599 13.9223 27.99Z" fill="#3A1E19" fill-opacity="0.68"/>
<path d="M50.2751 46.9281L45.7916 45.2747C42.1618 43.9361 39.3004 41.075 37.9621 37.4454L36.3084 32.9617C36.2462 32.7931 36.0855 32.6812 35.9058 32.6812C35.7261 32.6812 35.5654 32.7931 35.5033 32.9617L33.8496 37.4451C32.511 41.075 29.6496 43.9361 26.02 45.2747L21.5363 46.9281C21.3677 46.9903 21.2558 47.151 21.2558 47.3307C21.2558 47.5104 21.3677 47.6711 21.5363 47.7333L26.0203 49.3872C29.6499 50.7258 32.511 53.5869 33.8496 57.2165L35.5033 61.7005C35.5654 61.8691 35.7261 61.981 35.9058 61.981C36.0855 61.981 36.2462 61.8691 36.3084 61.7005L37.9621 57.2165C39.3007 53.5869 42.1618 50.7255 45.7914 49.3872L50.2754 47.7333C50.4439 47.6711 50.5559 47.5104 50.5559 47.3307C50.5559 47.151 50.4437 46.9903 50.2751 46.9281Z" fill="#3A1E19" fill-opacity="0.68"/>
<path d="M73.481 27.7498L70.4336 26.626C67.967 25.7163 66.0224 23.7717 65.1127 21.305L63.9889 18.2579C63.9465 18.1435 63.8373 18.0671 63.7152 18.0671C63.5932 18.0671 63.484 18.1435 63.4416 18.2579L62.318 21.3048C61.4083 23.7717 59.4637 25.7163 56.9968 26.626L53.9497 27.7498C53.8352 27.792 53.7589 27.9011 53.7589 28.0232C53.7589 28.1453 53.8352 28.2547 53.9497 28.2969L56.9971 29.4204C59.4637 30.3304 61.4083 32.275 62.318 34.7416L63.4416 37.7892C63.484 37.9037 63.5932 37.98 63.7152 37.98C63.8373 37.98 63.9465 37.9037 63.9889 37.7892L65.1127 34.7416C66.0224 32.2747 67.9667 30.3304 70.4336 29.4207L73.481 28.2969C73.5955 28.2547 73.6718 28.1453 73.6718 28.0232C73.6718 27.9011 73.5955 27.792 73.481 27.7498Z" fill="#3A1E19" fill-opacity="0.68"/>
<path d="M66.0992 67.8644L63.9735 67.0802C62.2528 66.4457 60.8965 65.0894 60.262 63.369L59.4779 61.2438C59.4485 61.1639 59.3722 61.1108 59.2871 61.1108C59.2019 61.1108 59.1256 61.1639 59.0963 61.2438L58.3121 63.369C57.6776 65.0897 56.3213 66.4459 54.6009 67.0802L52.4752 67.8644C52.3953 67.8937 52.3422 67.97 52.3422 68.0552C52.3422 68.1403 52.3953 68.2166 52.4752 68.246L54.6007 69.0301C56.3216 69.6646 57.6778 71.0212 58.3124 72.7418L59.0965 74.8673C59.1258 74.9472 59.2022 75.0002 59.2873 75.0002C59.3725 75.0002 59.4488 74.9472 59.4781 74.8673L60.2622 72.7418C60.8968 71.0212 62.2531 69.6646 63.974 69.0301L66.0995 68.246C66.1793 68.2166 66.2324 68.1403 66.2324 68.0552C66.2324 67.97 66.1793 67.8937 66.0992 67.8644Z" fill="#3A1E19" fill-opacity="0.68"/>
<path d="M50.4229 6.75379L48.2972 5.9699C46.5765 5.33536 45.2203 3.97909 44.586 2.25842L43.8018 0.133175C43.7725 0.053068 43.6962 0 43.611 0C43.5259 0 43.4496 0.053068 43.4202 0.132923L42.6364 2.25792C42.0018 3.97858 40.6453 5.3351 38.9246 5.96965L36.7989 6.75354C36.719 6.78285 36.666 6.85917 36.666 6.94433C36.666 7.02949 36.719 7.10581 36.7989 7.13512L38.9244 7.91926C40.6453 8.5538 42.0018 9.91032 42.6364 11.6312L43.4202 13.7565C43.4496 13.8363 43.5259 13.8894 43.611 13.8894C43.6962 13.8894 43.7725 13.8363 43.8018 13.7565L44.586 11.631C45.2205 9.91007 46.5768 8.55381 48.2977 7.91952L50.4232 7.13537C50.5031 7.10606 50.5561 7.02974 50.5561 6.94458C50.5561 6.85942 50.5031 6.7831 50.4229 6.75379Z" fill="#3A1E19" fill-opacity="0.68"/>
<path d="M24.3504 63.4947L21.6768 62.5091C19.5126 61.7111 17.8063 60.0048 17.0078 57.8404L16.022 55.1668C15.9848 55.0665 15.8891 54.9995 15.7819 54.9995C15.6748 54.9995 15.579 55.0665 15.5419 55.1668L14.5561 57.8402C13.758 60.0046 12.0517 61.7108 9.88708 62.5091L7.21397 63.4947C7.11314 63.5316 7.04668 63.6276 7.04668 63.7348C7.04668 63.8419 7.11339 63.9379 7.21397 63.9748L9.88733 64.9609C12.0515 65.7589 13.7578 67.4652 14.5561 69.6296L15.5419 72.3032C15.579 72.4038 15.6748 72.4705 15.7819 72.4705C15.8891 72.4705 15.9851 72.4038 16.022 72.3032L17.008 69.6294C17.8061 67.4652 19.5121 65.7592 21.6765 64.9609L24.3504 63.9748C24.451 63.9379 24.5177 63.8419 24.5177 63.7348C24.5177 63.6276 24.4512 63.5316 24.3504 63.4947Z" fill="#3A1E19" fill-opacity="0.68"/>
</g>
<defs>
<clipPath id="clip0">
<rect width="75" height="75" fill="white"/>
</clipPath>
</defs>
</svg>
